<?xml version="1.0" standalone="no"?>
<!DOCTYPE svg PUBLIC "-//W3C//DTD SVG 20010904//EN"
 "http://www.w3.org/TR/2001/REC-SVG-20010904/DTD/svg10.dtd">
<svg version="1.0" xmlns="http://www.w3.org/2000/svg"
 width="400.000000pt" height="400.000000pt" viewBox="0 0 400.000000 400.000000"
 preserveAspectRatio="xMidYMid meet">
<metadata>
Created by potrace 1.11, written by Peter Selinger 2001-2013
</metadata>
<g transform="translate(0.000000,400.000000) scale(0.100000,-0.100000)"
fill="#000000" stroke="none">
<path d="M1957 3924 c-1 -1 -45 -5 -97 -8 -52 -3 -108 -8 -125 -11 -36 -6 -96
-17 -110 -21 -5 -1 -24 -5 -41 -8 -17 -3 -69 -17 -115 -31 -46 -14 -91 -27
-99 -30 -8 -2 -16 -4 -17 -5 -2 -2 -6 -3 -10 -4 -21 -4 -148 -62 -151 -68 -2
-5 -10 -8 -18 -8 -14 0 -195 -98 -204 -110 -3 -4 -18 -15 -35 -24 -76 -43
-174 -124 -290 -241 -108 -109 -117 -119 -186 -210 -93 -124 -166 -251 -231
-405 -35 -82 -93 -258 -102 -310 -3 -14 -5 -27 -6 -30 -3 -6 -4 -11 -14 -75
-5 -27 -10 -59 -12 -70 -21 -111 -20 -430 2 -537 2 -13 6 -36 8 -53 6 -42 31
-150 51 -215 9 -30 18 -62 20 -70 32 -120 186 -418 277 -535 131 -168 279
-316 413 -410 39 -27 71 -53 73 -57 2 -5 8 -8 12 -8 5 0 28 -13 52 -29 37 -24
220 -116 283 -142 63 -26 214 -75 259 -83 6 -2 36 -8 66 -14 152 -32 207 -37
400 -37 169 0 212 3 330 24 220 38 429 113 625 225 50 28 95 54 100 58 6 4 47
35 92 68 46 33 91 68 101 77 11 10 51 48 90 85 71 67 202 218 237 273 10 16
22 34 27 40 81 99 247 469 273 612 2 15 7 39 10 53 34 148 44 261 39 445 -4
180 -5 199 -18 265 -3 19 -8 46 -10 60 -3 14 -5 25 -6 25 -1 0 -4 17 -6 39 -7
52 -84 286 -122 366 -17 36 -30 68 -29 71 1 3 -4 13 -11 22 -8 9 -22 31 -31
49 -34 63 -47 84 -100 162 -134 198 -330 390 -530 520 -66 44 -229 136 -239
136 -3 0 -28 11 -56 24 -102 48 -346 120 -451 132 -22 3 -47 7 -55 9 -27 8
-307 24 -313 19z"/>
</g>
</svg>
